<svg width="36" height="33" viewBox="0 0 36 33" fill="none" xmlns="http://www.w3.org/2000/svg">
<path d="M36 16.4993C36 7.38657 27.9411 -0.000724792 18 -0.000724792C8.05887 -0.000724792 0 7.38657 0 16.4993C0 24.7349 6.58234 31.561 15.1875 32.7988V21.2688H10.6172V16.4993H15.1875V12.8641C15.1875 8.72881 17.8748 6.44459 21.9864 6.44459C23.9557 6.44459 26.0156 6.76685 26.0156 6.76685V10.8274H23.7459C21.5098 10.8274 20.8125 12.0993 20.8125 13.4041V16.4993H25.8047L25.0066 21.2688H20.8125V32.7988C29.4177 31.561 36 24.7349 36 16.4993Z" fill="#1877F2"/>
<path d="M25.0066 21.2695L25.8047 16.5H20.8125V13.4049C20.8125 12.1 21.5098 10.8281 23.7459 10.8281H26.0156V6.76758C26.0156 6.76758 23.9557 6.44531 21.9864 6.44531C17.8748 6.44531 15.1875 8.72953 15.1875 12.8648V16.5H10.6172V21.2695H15.1875V32.7996C16.1039 32.9314 17.0432 33 18 33C18.9568 33 19.8961 32.9314 20.8125 32.7996V21.2695H25.0066Z" fill="white"/>
</svg>
