<svg width="37" height="28" viewBox="0 0 37 28" fill="none" xmlns="http://www.w3.org/2000/svg">
<path d="M11.8297 27.9783C25.2076 27.9783 32.5234 17.3671 32.5234 8.16549C32.5234 7.86409 32.517 7.56406 32.5029 7.26539C33.923 6.28248 35.1573 5.05588 36.1309 3.65955C34.8277 4.21414 33.4253 4.58748 31.9541 4.75583C33.4557 3.89374 34.6086 2.53002 35.1524 0.904316C33.7472 1.70192 32.191 2.28162 30.534 2.5946C29.2068 1.2411 27.3173 0.394531 25.2251 0.394531C21.2086 0.394531 17.9516 3.51303 17.9516 7.35702C17.9516 7.90345 18.0154 8.43497 18.1402 8.94479C12.0954 8.65358 6.7353 5.88268 3.14803 1.66933C2.52341 2.6984 2.16324 3.89377 2.16324 5.16926C2.16324 7.58515 3.44727 9.7179 5.39983 10.9656C4.20657 10.9303 3.08564 10.6167 2.10591 10.0947C2.10484 10.1239 2.10483 10.1524 2.10483 10.1836C2.10483 13.556 4.61186 16.3716 7.9398 17.0096C7.32864 17.1692 6.68563 17.2547 6.02197 17.2547C5.55404 17.2547 5.09815 17.2106 4.65503 17.1291C5.58097 19.8959 8.26597 21.9093 11.4493 21.9656C8.95997 23.8336 5.82415 24.9463 2.41603 24.9463C1.82969 24.9463 1.25045 24.9143 0.681152 24.8499C3.90001 26.8252 7.72211 27.9778 11.8301 27.9778" fill="#1DA1F2"/>
</svg>
