<svg width="18" height="18" viewBox="0 0 18 18" fill="none" xmlns="http://www.w3.org/2000/svg">
<path d="M15.75 3H2.25C2.05109 3 1.86032 3.07902 1.71967 3.21967C1.57902 3.36032 1.5 3.55109 1.5 3.75V14.25C1.5 14.6478 1.65804 15.0294 1.93934 15.3107C2.22064 15.592 2.60218 15.75 3 15.75H15C15.3978 15.75 15.7794 15.592 16.0607 15.3107C16.342 15.0294 16.5 14.6478 16.5 14.25V3.75C16.5 3.55109 16.421 3.36032 16.2803 3.21967C16.1397 3.07902 15.9489 3 15.75 3ZM9 9.75C6.51825 9.75 4.5 7.73175 4.5 5.25H6C6 6.9045 7.3455 8.25 9 8.25C10.6545 8.25 12 6.9045 12 5.25H13.5C13.5 7.73175 11.4818 9.75 9 9.75Z" fill="black"/>
</svg>
