<svg width="166" height="32" viewBox="0 0 166 32" fill="none" xmlns="http://www.w3.org/2000/svg">
<path d="M34.4292 6.05783C24.974 3.13476 7.53673 13.1219 0 18.4809V32.0002H165.466V14C157 7.5 153.5 3 141.5 6.5C124.475 11.4656 122.301 17.0193 109.968 18.4809C96 20.1363 104.315 0.942383 85.816 0.942383C67.3167 0.942383 71.4277 13.7308 58.0671 15.5578C44.7065 17.3847 46.2481 9.71168 34.4292 6.05783Z" fill="url(#paint0_linear_210_314)"/>
<path d="M1.02773 18.7645C8.44883 13.3171 25.6186 3.16508 34.9287 6.13639C46.5663 9.85053 45.0483 17.6502 58.2039 15.7931C71.3595 13.936 67.3116 0.936523 85.5271 0.936523C103.742 0.936523 94.4702 13.9087 106 17.9998C121.5 23.4998 146 -9.50024 165 14.4998" stroke="#FB8B83"/>
<defs>
<linearGradient id="paint0_linear_210_314" x1="83.5" y1="-5.88086" x2="83.5" y2="32.001" gradientUnits="userSpaceOnUse">
<stop stop-color="#FB8B83"/>
<stop offset="1" stop-color="#FB8B83" stop-opacity="0"/>
</linearGradient>
</defs>
</svg>
