<svg width="23" height="22" viewBox="0 0 23 22" fill="none" xmlns="http://www.w3.org/2000/svg">
<g clip-path="url(#clip0_626_1847)">
<path d="M22.9988 11.6819C22.9814 11.1446 22.7442 10.6353 22.3382 10.2636L13.9963 2.4904C13.8712 2.37101 13.7227 2.27641 13.5592 2.21204C13.3958 2.14766 13.2207 2.11476 13.044 2.11524H11.5552L21.3371 11.2504L21.3412 11.2542C21.4776 11.3778 21.5575 11.5479 21.5638 11.7275C21.57 11.9072 21.502 12.0819 21.3745 12.214L14.3487 19.6628L15.3349 20.5805L22.4361 13.1411C22.8166 12.7442 23.0187 12.2201 22.9988 11.6819Z" fill="black"/>
<path d="M19.1771 12.1661C19.2457 11.9856 19.26 11.7904 19.2185 11.6025C19.177 11.4145 19.0812 11.2415 18.9422 11.103C18.9374 11.0982 18.9332 11.0931 18.9284 11.0884L10.0763 2.47906L10.0721 2.47502C9.93889 2.34693 9.78048 2.24538 9.606 2.17625C9.43152 2.10712 9.24443 2.07178 9.05558 2.07227H2.70403C2.17768 2.07284 1.67306 2.27309 1.30088 2.62909C0.928698 2.98509 0.719344 3.46777 0.71875 3.97123V10.0341C0.719071 10.2214 0.759242 10.4067 0.836819 10.5787C0.914395 10.7506 1.02775 10.9057 1.16999 11.0344L10.618 19.6368L10.6214 19.6399C10.8206 19.82 11.0845 19.9201 11.3585 19.9196C11.3719 19.9196 11.3854 19.9193 11.399 19.9188C11.502 19.9153 11.604 19.8977 11.7018 19.8665C11.8747 19.8114 12.03 19.715 12.1531 19.5865L18.9563 12.5129C19.0532 12.4125 19.1282 12.2946 19.1771 12.1661ZM11.3428 18.3983L2.15971 10.0371L2.15625 10.034V3.97123C2.15642 3.83232 2.21418 3.69914 2.31687 3.60091C2.41957 3.50268 2.5588 3.44743 2.70403 3.44727H9.05553L17.6671 11.8227L11.3428 18.3983Z" fill="black"/>
<path d="M6.28906 4.8125C5.82706 4.8125 5.37543 4.94354 4.99129 5.18906C4.60714 5.43458 4.30774 5.78354 4.13094 6.19182C3.95414 6.6001 3.90788 7.04935 3.99801 7.48278C4.08814 7.91621 4.31062 8.31433 4.63731 8.62682C4.96399 8.9393 5.38022 9.1521 5.83334 9.23832C6.28647 9.32453 6.75615 9.28028 7.18299 9.11117C7.60983 8.94205 7.97465 8.65567 8.23133 8.28823C8.488 7.92079 8.625 7.48879 8.625 7.04688C8.6243 6.45449 8.37797 5.88656 7.94005 5.46767C7.50213 5.04879 6.90838 4.81317 6.28906 4.8125ZM6.28906 7.90625C6.11137 7.90625 5.93767 7.85585 5.78992 7.76142C5.64217 7.66699 5.52702 7.53277 5.45902 7.37574C5.39101 7.21871 5.37322 7.04592 5.40789 6.87922C5.44256 6.71252 5.52812 6.55939 5.65377 6.43921C5.77942 6.31902 5.93951 6.23717 6.11379 6.20401C6.28807 6.17085 6.46871 6.18787 6.63288 6.25292C6.79705 6.31796 6.93737 6.42811 7.03609 6.56943C7.13481 6.71076 7.1875 6.87691 7.1875 7.04688C7.18723 7.27472 7.09248 7.49315 6.92405 7.65426C6.75562 7.81536 6.52726 7.90599 6.28906 7.90625Z" fill="black"/>
</g>
<defs>
<clipPath id="clip0_626_1847">
<rect width="23" height="22" fill="white"/>
</clipPath>
</defs>
</svg>
