<svg width="18" height="18" viewBox="0 0 18 18" fill="none" xmlns="http://www.w3.org/2000/svg">
<path d="M17.6925 2.60738C17.5015 2.08212 17.1977 1.60511 16.8025 1.2099C16.4073 0.814689 15.9303 0.510891 15.405 0.319883C14.4225 0.00488283 13.53 0.00488281 11.715 0.00488281H6.27C4.47 0.00488281 3.5625 0.00488281 2.595 0.304883C2.06898 0.496687 1.59148 0.801633 1.19622 1.19819C0.800963 1.59474 0.497581 2.07324 0.3075 2.59988C0 3.57488 0 4.47488 0 6.27488V11.7274C0 13.5349 0 14.4274 0.3 15.4024C0.491008 15.9276 0.794806 16.4047 1.19002 16.7999C1.58522 17.1951 2.06224 17.4989 2.5875 17.6899C3.5625 17.9974 4.4625 17.9974 6.2625 17.9974H11.7225C13.53 17.9974 14.43 17.9974 15.3975 17.6974C15.9249 17.5065 16.4039 17.202 16.8005 16.8054C17.1971 16.4088 17.5016 15.9298 17.6925 15.4024C18 14.4274 18 13.5274 18 11.7274V6.28988C18 4.48238 18 3.58238 17.6925 2.60738ZM13.065 6.07988L12.3675 6.77738C12.2995 6.84061 12.2105 6.87637 12.1177 6.87776C12.0249 6.87915 11.9348 6.84605 11.865 6.78488C11.1895 6.21441 10.3342 5.90096 9.45 5.89988C8.7225 5.89988 7.995 6.13988 7.995 6.80738C7.995 7.48238 8.775 7.70738 9.675 8.04488C11.25 8.56988 12.555 9.22988 12.555 10.7749C12.555 12.4549 11.25 13.6099 9.12 13.7374L8.925 14.6374C8.90776 14.7201 8.86255 14.7943 8.79698 14.8476C8.73141 14.9009 8.64948 14.9299 8.565 14.9299H7.2225L7.155 14.9224C7.05891 14.9008 6.97515 14.8423 6.92183 14.7595C6.8685 14.6767 6.84988 14.5763 6.87 14.4799L7.08 13.5274C6.27166 13.3247 5.52828 12.9195 4.92 12.3499V12.3424C4.88644 12.3089 4.85981 12.2692 4.84164 12.2254C4.82347 12.1817 4.81412 12.1348 4.81412 12.0874C4.81412 12.04 4.82347 11.9931 4.84164 11.9493C4.85981 11.9056 4.88644 11.8658 4.92 11.8324L5.67 11.1049C5.7381 11.0411 5.82793 11.0056 5.92125 11.0056C6.01457 11.0056 6.1044 11.0411 6.1725 11.1049C6.855 11.7499 7.77 12.1099 8.715 12.0949C9.69 12.0949 10.3425 11.6824 10.3425 11.0299C10.3425 10.3774 9.6825 10.2049 8.4375 9.73988C7.1175 9.26738 5.865 8.59988 5.865 7.03988C5.865 5.22488 7.3725 4.33988 9.1575 4.25738L9.345 3.33488C9.36244 3.2529 9.40795 3.17957 9.47367 3.12754C9.53938 3.07551 9.6212 3.04805 9.705 3.04988H11.04L11.115 3.05738C11.31 3.10238 11.4375 3.28988 11.3925 3.48488L11.19 4.51238C11.865 4.73738 12.5025 5.08988 13.05 5.55488L13.065 5.56988C13.2075 5.71988 13.2075 5.94488 13.065 6.07988Z" fill="black"/>
</svg>
