<svg width="167" height="39" viewBox="0 0 167 39" fill="none" xmlns="http://www.w3.org/2000/svg">
<path d="M34.4292 13.0577C24.974 10.1346 7.53673 20.1218 0 25.4808V39.0001H165.466V1.36531C168.549 0.878128 169.063 0.780691 146.452 4.28838C118.19 8.673 122.301 24.0192 109.968 25.4808C97.6349 26.9424 104.315 7.94223 85.816 7.94223C67.3167 7.94223 71.4277 20.7307 58.0671 22.5576C44.7065 24.3845 46.2481 16.7115 34.4292 13.0577Z" fill="url(#paint0_linear_210_310)"/>
<path d="M1.02774 25.7646C8.44884 20.3172 25.6186 10.1652 34.9287 13.1365C46.5663 16.8507 45.0484 24.6503 58.2039 22.7932C71.3595 20.9362 67.3117 7.93668 85.5271 7.93668C103.743 7.93668 97.1647 27.2504 109.308 25.7646C121.452 24.2789 117.404 8.67951 145.233 4.22254C167.496 0.656958 166.991 0.756002 163.955 1.25122" stroke="#36D077"/>
<defs>
<linearGradient id="paint0_linear_210_310" x1="87.3576" y1="-19.4615" x2="85.2763" y2="36.5178" gradientUnits="userSpaceOnUse">
<stop stop-color="#36D077"/>
<stop offset="1" stop-color="#36D077" stop-opacity="0"/>
</linearGradient>
</defs>
</svg>
