<svg width="18" height="18" viewBox="0 0 18 18" fill="none" xmlns="http://www.w3.org/2000/svg">
<path d="M17.2329 6.37727L15.6815 4.82583C15.5563 4.70234 15.3894 4.63024 15.2137 4.62373C15.038 4.61722 14.8662 4.67679 14.7323 4.79067C14.5255 4.96671 14.2601 5.05863 13.9887 5.04821C13.7173 5.03779 13.4597 4.9258 13.267 4.73442C13.0757 4.54173 12.9638 4.28422 12.9533 4.0129C12.9429 3.74159 13.0348 3.47626 13.2107 3.26946C13.3246 3.1355 13.3842 2.96373 13.3777 2.78802C13.3711 2.61231 13.299 2.44541 13.1756 2.32024L11.6227 0.76704C11.4915 0.636062 11.3136 0.5625 11.1282 0.5625C10.9428 0.5625 10.765 0.636062 10.6338 0.76704L8.16052 3.23993C8.00782 3.39317 7.89267 3.57968 7.82408 3.78485C7.81072 3.8243 7.78845 3.86014 7.759 3.88959C7.72955 3.91903 7.69372 3.9413 7.65427 3.95466C7.44902 4.02325 7.26248 4.13854 7.10935 4.29145L0.767162 10.6336C0.636184 10.7649 0.562622 10.9427 0.562622 11.1281C0.562622 11.3135 0.636184 11.4914 0.767162 11.6226L2.32036 13.174C2.44554 13.2975 2.61243 13.3696 2.78814 13.3761C2.96385 13.3826 3.13562 13.3231 3.26958 13.2092C3.47591 13.0317 3.74168 12.9388 4.01364 12.949C4.28559 12.9592 4.54364 13.0718 4.73608 13.2643C4.92852 13.4567 5.04112 13.7147 5.05134 13.9867C5.06155 14.2587 4.96861 14.5244 4.79115 14.7308C4.67726 14.8647 4.6177 15.0365 4.62421 15.2122C4.63071 15.3879 4.70282 15.5548 4.8263 15.68L6.37775 17.2314C6.50898 17.3624 6.68681 17.436 6.87222 17.436C7.05763 17.436 7.23546 17.3624 7.36669 17.2314L13.7089 10.8892C13.8617 10.7362 13.977 10.5498 14.0457 10.3447C14.059 10.3051 14.0813 10.2691 14.1108 10.2396C14.1403 10.2101 14.1763 10.1878 14.2158 10.1745C14.4209 10.1059 14.6073 9.99074 14.7604 9.83805L17.2333 7.36481C17.3638 7.2336 17.437 7.05604 17.437 6.87097C17.4369 6.68591 17.3635 6.5084 17.2329 6.37727ZM9.20431 5.33489C9.15207 5.38714 9.09006 5.42858 9.0218 5.45686C8.95355 5.48514 8.8804 5.49969 8.80652 5.49969C8.73264 5.49969 8.65948 5.48514 8.59123 5.45686C8.52297 5.42858 8.46096 5.38714 8.40872 5.33489L8.00408 4.93024C7.90115 4.82422 7.84408 4.68196 7.8452 4.53421C7.84631 4.38645 7.90551 4.24506 8.01002 4.1406C8.11453 4.03614 8.25594 3.977 8.40369 3.97595C8.55145 3.97491 8.69369 4.03204 8.79966 4.13501L9.20431 4.53931C9.25656 4.59154 9.298 4.65355 9.32628 4.72181C9.35455 4.79006 9.36911 4.86322 9.36911 4.9371C9.36911 5.01098 9.35455 5.08413 9.32628 5.15239C9.298 5.22064 9.25656 5.28266 9.20431 5.33489ZM10.7512 6.88177C10.6457 6.98718 10.5027 7.04639 10.3536 7.04639C10.2044 7.04639 10.0614 6.98718 9.95595 6.88177L9.56923 6.49505C9.51699 6.44281 9.47555 6.38079 9.44728 6.31254C9.41901 6.24429 9.40446 6.17113 9.40446 6.09725C9.40446 6.02338 9.41901 5.95022 9.44728 5.88197C9.47555 5.81372 9.51699 5.7517 9.56923 5.69946C9.67473 5.59396 9.81782 5.53469 9.96702 5.53469C10.0409 5.53469 10.1141 5.54924 10.1823 5.57751C10.2506 5.60578 10.3126 5.64722 10.3648 5.69946L10.7515 6.08618C10.804 6.13841 10.8456 6.20047 10.874 6.26881C10.9024 6.33715 10.917 6.41042 10.917 6.48443C10.9171 6.55843 10.9025 6.63172 10.8742 6.70008C10.8458 6.76844 10.8043 6.83054 10.7519 6.88282L10.7512 6.88177ZM12.2981 8.42864C12.2458 8.48089 12.1838 8.52233 12.1156 8.55061C12.0473 8.57889 11.9741 8.59344 11.9003 8.59344C11.8264 8.59344 11.7532 8.57889 11.685 8.55061C11.6167 8.52233 11.5547 8.48089 11.5025 8.42864L11.1158 8.04192C11.0128 7.9359 10.9558 7.79364 10.9569 7.64588C10.958 7.49813 11.0172 7.35674 11.1217 7.25228C11.2262 7.14782 11.3676 7.08868 11.5154 7.08763C11.6631 7.08659 11.8054 7.14372 11.9113 7.24669L12.2981 7.63341C12.3506 7.68555 12.3924 7.74756 12.4209 7.81588C12.4495 7.88421 12.4643 7.95749 12.4644 8.03154C12.4646 8.10559 12.4501 8.17894 12.4219 8.24738C12.3936 8.31583 12.3522 8.37802 12.2998 8.4304L12.2981 8.42864ZM13.8601 9.9945C13.8078 10.0467 13.7458 10.0882 13.6775 10.1165C13.6093 10.1447 13.5361 10.1593 13.4623 10.1593C13.3884 10.1593 13.3152 10.1447 13.247 10.1165C13.1787 10.0882 13.1167 10.0467 13.0645 9.9945L12.6623 9.5902C12.6089 9.53812 12.5665 9.47596 12.5374 9.40733C12.5083 9.33869 12.4931 9.26496 12.4927 9.19041C12.4924 9.11586 12.5068 9.04198 12.5353 8.97307C12.5637 8.90416 12.6056 8.84159 12.6585 8.78901C12.7113 8.73642 12.7741 8.69486 12.8431 8.66675C12.9122 8.63863 12.9861 8.62453 13.0607 8.62525C13.1352 8.62596 13.2089 8.64149 13.2774 8.67093C13.3458 8.70037 13.4078 8.74313 13.4596 8.79673L13.8622 9.20067C13.9144 9.25293 13.9558 9.31496 13.984 9.38323C14.0123 9.4515 14.0268 9.52466 14.0268 9.59854C14.0267 9.67242 14.0122 9.74557 13.9839 9.81381C13.9556 9.88205 13.9141 9.94405 13.8618 9.99626L13.8601 9.9945Z" fill="black"/>
</svg>
