<svg width="239" height="83" viewBox="0 0 239 83" fill="none" xmlns="http://www.w3.org/2000/svg">
<path fill-rule="evenodd" clip-rule="evenodd" d="M0 0H238.022V82.1368H0V0ZM72.5764 18.2475C75.0412 18.2475 77.1696 18.7517 78.962 19.7598C80.7546 20.7681 82.1213 22.1462 83.0624 23.8938V18.7181H97.9178V28.6432C96.93 31.2727 96.4359 34.2829 96.4359 37.6737C96.4359 41.0646 96.9299 44.0747 97.9178 46.7042V56.6293H83.0624V51.4534C82.1213 53.2013 80.7546 54.5792 78.962 55.5875C77.1696 56.5957 75.0411 57.0999 72.5764 57.0999C69.6187 57.0999 66.9524 56.3268 64.5774 54.781C62.2023 53.2349 60.3315 50.9942 58.9645 48.059C57.5978 45.1238 56.9144 41.662 56.9144 37.6738C56.9144 33.6855 57.5978 30.2237 58.9645 27.2884C60.3315 24.3534 62.2023 22.1127 64.5774 20.5667C66.9524 19.0206 69.6187 18.2476 72.5764 18.2476V18.2475ZM77.5505 31.288C75.9373 31.288 74.6153 31.8481 73.5845 32.9684C72.5539 34.0887 72.0386 35.6572 72.0386 37.6738C72.0386 39.6905 72.5539 41.2587 73.5845 42.3791C74.6153 43.4994 75.9373 44.0596 77.5505 44.0596C79.1638 44.0596 80.4858 43.4994 81.5164 42.3791C82.5471 41.2587 83.0624 39.6904 83.0624 37.6738C83.0624 35.6572 82.5471 34.0887 81.5164 32.9684C80.4858 31.8482 79.1638 31.288 77.5505 31.288ZM34.7032 8.56812C40.9322 8.56812 46.0073 10.0693 49.9283 13.0717C53.8494 16.0742 56.1684 20.1521 56.8854 25.3056H41.1562C40.5737 24.3645 39.7447 23.6363 38.6692 23.1209C37.5937 22.6055 36.2942 22.3478 34.7706 22.3478C31.9026 22.3478 29.6844 23.2778 28.1158 25.1374C26.5475 26.9972 25.7633 29.5404 25.7633 32.7668C25.7633 36.4862 26.637 39.2646 28.3848 41.1019C30.1325 42.9391 32.8212 43.8578 36.4511 43.8578C39.9016 43.8578 42.68 42.4686 44.7861 39.6904H32.8884V29.137H55.6318C54.7628 31.6478 54.3282 34.4934 54.3282 37.6738C54.3282 40.905 54.7769 43.7908 55.6741 46.3309C53.7982 48.916 51.446 51.195 48.6176 53.1677C44.988 55.6995 40.3945 56.9655 34.8379 56.9655C29.9085 56.9655 25.6176 55.9459 21.9655 53.907C18.3132 51.8679 15.5126 49.0112 13.5631 45.3367C11.6139 41.662 10.6392 37.472 10.6392 32.7668C10.6392 28.0615 11.6139 23.8714 13.5631 20.1968C15.5126 16.5222 18.302 13.6655 21.9319 11.6264C25.5616 9.58751 29.8189 8.56804 34.7034 8.56804L34.7032 8.56812ZM114.684 18.2476C117.149 18.2476 119.277 18.7518 121.07 19.7599C122.862 20.7682 124.229 22.1462 125.17 23.8939V18.7182H140.026V29.393C139.038 31.8487 138.544 34.6091 138.544 37.6738C138.544 40.7384 139.038 43.4988 140.026 45.9544V55.9572C140.026 59.4975 139.376 62.7239 138.076 65.6367C136.777 68.5496 134.682 70.8796 131.791 72.6275C128.901 74.3752 125.193 75.249 120.667 75.249C114.572 75.249 109.743 73.8263 106.181 70.9806C102.618 68.135 100.591 64.27 100.098 59.3854H114.751C115.155 61.357 116.768 62.343 119.591 62.343C121.339 62.343 122.706 61.8947 123.691 60.9985C124.677 60.1024 125.17 58.4219 125.17 55.9572V51.4534C124.229 53.2013 122.862 54.5792 121.07 55.5875C119.277 56.5957 117.149 57.0999 114.684 57.0999C111.727 57.0999 109.06 56.3268 106.685 54.781C104.31 53.2349 102.439 50.9942 101.072 48.059C99.7056 45.1238 99.0222 41.662 99.0222 37.6738C99.0222 33.6855 99.7057 30.2237 101.072 27.2884C102.439 24.3534 104.31 22.1127 106.685 20.5667C109.06 19.0206 111.727 18.2476 114.684 18.2476ZM119.658 31.288C118.045 31.288 116.723 31.8482 115.692 32.9685C114.662 34.0888 114.146 35.6573 114.146 37.6739C114.146 39.6905 114.662 41.2588 115.692 42.3792C116.723 43.4995 118.045 44.0597 119.658 44.0597C121.272 44.0597 122.594 43.4995 123.624 42.3792C124.655 41.2588 125.17 39.6905 125.17 37.6739C125.17 35.6573 124.655 34.0888 123.624 32.9685C122.594 31.8483 121.272 31.288 119.658 31.288ZM176.454 40.2954H155.649C155.784 42.1774 156.209 43.4658 156.927 44.1604C157.644 44.855 158.584 45.2023 159.75 45.2023C161.363 45.2023 162.528 44.4628 163.245 42.9841H176.809C177.053 44.3015 177.395 45.5439 177.834 46.7111V46.7113C177.261 47.9512 176.532 49.1176 175.647 50.2101C173.922 52.3386 171.748 54.0191 169.127 55.2515C166.505 56.4838 163.626 57.1 160.489 57.1C156.725 57.1 153.375 56.3157 150.44 54.7474C147.505 53.179 145.219 50.9271 143.584 47.9919C141.948 45.0567 141.13 41.6172 141.13 37.6739C141.13 33.7303 141.948 30.291 143.584 27.3558C145.219 24.4206 147.505 22.1687 150.44 20.6003C153.375 19.0318 156.725 18.2477 160.489 18.2477C164.253 18.2477 167.603 19.0207 170.538 20.5668C173.474 22.1128 175.759 24.3199 177.395 27.1877C177.599 27.5462 177.791 27.9124 177.969 28.2869V28.2871C176.89 31 176.35 34.1291 176.35 37.674C176.35 38.5748 176.384 39.4486 176.454 40.2955L176.454 40.2954ZM164.724 34.1784C164.724 32.7445 164.321 31.6801 163.514 30.9855C162.707 30.2909 161.699 29.9436 160.489 29.9436C157.755 29.9436 156.187 31.3552 155.784 34.1784H164.724ZM194.598 18.2476C197.063 18.2476 199.18 18.7518 200.95 19.7599C202.72 20.7682 204.076 22.1462 205.017 23.8939V6.88775H219.939V56.6295H205.017V51.4536C204.076 53.2015 202.72 54.5794 200.95 55.5876C199.18 56.5959 197.063 57.1001 194.598 57.1001C191.64 57.1001 188.974 56.327 186.599 54.7811C184.224 53.2351 182.353 50.9944 180.986 48.0592C179.619 45.124 178.936 41.6622 178.936 37.674C178.936 33.6857 179.619 30.2239 180.986 27.2886C182.353 24.3536 184.224 22.1129 186.599 20.5668C188.974 19.0208 191.64 18.2478 194.598 18.2478V18.2476ZM199.572 31.288C197.959 31.288 196.637 31.8482 195.606 32.9685C194.575 34.0888 194.06 35.6573 194.06 37.6739C194.06 39.6905 194.575 41.2588 195.606 42.3792C196.637 43.4995 197.959 44.0597 199.572 44.0597C201.185 44.0597 202.507 43.4995 203.538 42.3792C204.569 41.2588 205.084 39.6905 205.084 37.6739C205.084 35.6573 204.569 34.0888 203.538 32.9685C202.507 31.8483 201.185 31.288 199.572 31.288Z" fill="#0531AD"/>
</svg>


