<svg width="238" height="83" viewBox="0 0 238 83" fill="none" xmlns="http://www.w3.org/2000/svg">
<path d="M238 0.396484H0V83H238V0.396484Z" fill="#F5F8FF"/>
<path d="M34.7002 9.01376C40.9286 9.01376 46.0032 10.5235 49.9238 13.543C53.8446 16.5625 56.1634 20.6635 56.8804 25.8463H41.1525C40.5701 24.8999 39.7412 24.1676 38.6658 23.6493C37.5904 23.1309 36.291 22.8718 34.7675 22.8718C31.8997 22.8718 29.6818 23.807 28.1134 25.6772C26.5451 27.5475 25.761 30.1052 25.761 33.35C25.761 37.0904 26.6347 39.8847 28.3823 41.7324C30.1298 43.5801 32.8183 44.504 36.4478 44.504C39.8981 44.504 42.6762 43.1069 44.7821 40.3129H32.8855V29.6995H55.6269C54.7579 32.2246 54.3233 35.0864 54.3233 38.2848C54.3233 41.5344 54.772 44.4366 55.6692 46.9912C53.7934 49.5909 51.4414 51.8828 48.6133 53.8668C44.984 56.413 40.3909 57.6862 34.8348 57.6862C29.9059 57.6862 25.6154 56.6608 21.9636 54.6103C18.3117 52.5596 15.5113 49.6867 13.562 45.9912C11.6129 42.2957 10.6383 38.0819 10.6383 33.35C10.6383 28.6179 11.6129 24.404 13.562 20.7085C15.5113 17.013 18.3005 14.1401 21.93 12.0894C25.5594 10.0389 29.8163 9.01367 34.7003 9.01367L34.7002 9.01376Z" fill="#0531AD"/>
<path d="M72.5699 18.749C75.0345 18.749 77.1627 19.2561 78.955 20.2699C80.7473 21.2839 82.114 22.6698 83.055 24.4274V19.2223H97.909V29.2038C96.9213 31.8482 96.4272 34.8755 96.4272 38.2856C96.4272 41.6957 96.9212 44.7229 97.909 47.3674V57.349H83.055V52.1437C82.114 53.9014 80.7473 55.2871 78.955 56.3012C77.1627 57.3152 75.0344 57.8222 72.5699 57.8222C69.6125 57.8222 66.9465 57.0447 64.5716 55.4901C62.1968 53.9352 60.3261 51.6818 58.9593 48.7299C57.5926 45.778 56.9093 42.2966 56.9093 38.2857C56.9093 34.2747 57.5927 30.7932 58.9593 27.8413C60.3261 24.8896 62.1968 22.6362 64.5716 21.0813C66.9465 19.5265 69.6125 18.7491 72.5699 18.7491V18.749ZM77.5436 31.8636C75.9305 31.8636 74.6086 32.4269 73.578 33.5536C72.5475 34.6802 72.0322 36.2576 72.0322 38.2857C72.0322 40.3138 72.5475 41.891 73.578 43.0177C74.6086 44.1444 75.9305 44.7078 77.5436 44.7078C79.1567 44.7078 80.4786 44.1444 81.5091 43.0177C82.5397 41.891 83.055 40.3137 83.055 38.2857C83.055 36.2576 82.5397 34.6802 81.5091 33.5536C80.4786 32.427 79.1567 31.8636 77.5436 31.8636Z" fill="#0531AD"/>
<path d="M114.674 18.749C117.138 18.749 119.267 19.2561 121.059 20.2699C122.851 21.2839 124.218 22.6698 125.159 24.4274V19.2223H140.013V29.9578C139.025 32.4274 138.531 35.2035 138.531 38.2856C138.531 41.3676 139.025 44.1437 140.013 46.6133V56.6729C140.013 60.2333 139.363 63.4781 138.064 66.4074C136.764 69.3368 134.67 71.6801 131.779 73.4379C128.889 75.1955 125.181 76.0744 120.656 76.0744C114.562 76.0744 109.734 74.6435 106.172 71.7817C102.609 68.9199 100.582 65.0329 100.089 60.1206H114.741C115.144 62.1034 116.757 63.095 119.58 63.095C121.328 63.095 122.695 62.6442 123.68 61.7429C124.666 60.8416 125.159 59.1516 125.159 56.6729V52.1436C124.218 53.9013 122.851 55.287 121.059 56.3011C119.267 57.3151 117.138 57.8221 114.674 57.8221C111.716 57.8221 109.05 57.0446 106.676 55.49C104.301 53.9351 102.43 51.6817 101.063 48.7298C99.6966 45.7779 99.0133 42.2965 99.0133 38.2856C99.0133 34.2746 99.6967 30.7931 101.063 27.8412C102.43 24.8895 104.301 22.6361 106.676 21.0813C109.05 19.5264 111.716 18.749 114.674 18.749ZM119.648 31.8636C118.034 31.8636 116.713 32.4269 115.682 33.5536C114.651 34.6802 114.136 36.2576 114.136 38.2857C114.136 40.3138 114.651 41.891 115.682 43.0177C116.713 44.1444 118.034 44.7078 119.648 44.7078C121.261 44.7078 122.583 44.1444 123.613 43.0177C124.644 41.891 125.159 40.3137 125.159 38.2857C125.159 36.2576 124.644 34.6802 123.613 33.5536C122.583 32.427 121.261 31.8636 119.648 31.8636Z" fill="#0531AD"/>
<path d="M176.438 40.922H155.635C155.77 42.8147 156.195 44.1104 156.912 44.809C157.629 45.5075 158.57 45.8568 159.735 45.8568C161.348 45.8568 162.513 45.1131 163.23 43.626H176.793C177.037 44.9509 177.379 46.2003 177.818 47.3742V47.3744C177.246 48.6214 176.517 49.7944 175.631 50.893C173.906 53.0337 171.733 54.7237 169.112 55.9631C166.49 57.2024 163.611 57.8221 160.475 57.8221C156.711 57.8221 153.361 57.0334 150.426 55.4562C147.492 53.8788 145.206 51.6142 143.571 48.6622C141.935 45.7103 141.117 42.2514 141.117 38.2856C141.117 34.3196 141.935 30.8607 143.571 27.9089C145.206 24.957 147.492 22.6923 150.426 21.115C153.361 19.5376 156.711 18.749 160.475 18.749C164.239 18.749 167.588 19.5264 170.523 21.0813C173.458 22.6361 175.743 24.8557 177.379 27.7398C177.583 28.1004 177.775 28.4686 177.954 28.8453V28.8455C176.874 31.5738 176.334 34.7207 176.334 38.2857C176.334 39.1916 176.369 40.0704 176.438 40.9221L176.438 40.922ZM164.709 34.7702C164.709 33.3282 164.306 32.2578 163.499 31.5592C162.693 30.8606 161.685 30.5114 160.475 30.5114C157.741 30.5114 156.173 31.9311 155.77 34.7702H164.709V34.7702Z" fill="#0531AD"/>
<path d="M194.58 18.7486C197.045 18.7486 199.162 19.2557 200.932 20.2695C202.702 21.2835 204.057 22.6694 204.998 24.427V7.32422H219.919V57.3486H204.998V52.1433C204.057 53.9011 202.702 55.2868 200.932 56.3008C199.162 57.3148 197.045 57.8219 194.58 57.8219C191.623 57.8219 188.957 57.0444 186.582 55.4897C184.207 53.9349 182.336 51.6815 180.97 48.7296C179.603 45.7777 178.92 42.2963 178.92 38.2854C178.92 34.2744 179.603 30.7929 180.97 27.841C182.336 24.8893 184.207 22.6359 186.582 21.081C188.957 19.5262 191.623 18.7488 194.58 18.7488V18.7486ZM199.554 31.8632C197.941 31.8632 196.619 32.4265 195.588 33.5532C194.558 34.6798 194.043 36.2572 194.043 38.2853C194.043 40.3134 194.558 41.8906 195.588 43.0173C196.619 44.144 197.941 44.7074 199.554 44.7074C201.167 44.7074 202.489 44.144 203.519 43.0173C204.55 41.8906 205.065 40.3133 205.065 38.2853C205.065 36.2572 204.55 34.6798 203.519 33.5532C202.489 32.4266 201.167 31.8632 199.554 31.8632Z" fill="#0531AD"/>
</svg>
