<svg width="58" height="58" viewBox="0 0 58 58" fill="none" xmlns="http://www.w3.org/2000/svg">
<g clip-path="url(#clip0_616_460)">
<path d="M37.9148 13.9658C29.289 8.56351 22.6835 19.0088 24.7223 23.4584C20.4429 20.3249 9.1816 24.1857 12.1585 33.7686C15.4575 44.4049 36.0259 40.3812 38.042 40.7826C38.3687 38.9865 47.2283 19.7339 37.9148 13.9658Z" fill="#FF5A79"/>
<path d="M37.9311 11.0249C36.878 10.2896 35.699 9.81379 34.4335 9.64842C33.219 9.44375 31.9181 9.54956 30.7743 9.85979C30.1572 10.009 29.6187 10.2604 29.0801 10.5118C28.7853 10.6572 28.5809 10.8143 28.2861 10.9597L27.5707 11.5098L28.4197 11.3449L29.2686 11.18C29.8346 11.0701 30.4006 10.9602 30.9548 10.9407C32.075 10.8112 33.1715 10.8626 34.2563 11.0043C35.341 11.1461 36.351 11.5079 37.4396 11.972C37.9584 12.2236 38.4771 12.4753 38.9448 12.7663C39.2041 12.8921 39.4517 13.1083 39.7111 13.2341L40.4774 13.702C40.332 13.4072 40.1356 13.1517 39.9784 12.9473C39.7819 12.6918 39.5855 12.4363 39.3772 12.2711C38.9332 11.7994 38.4381 11.3669 37.9311 11.0249" fill="#FF5A79"/>
<path d="M37.8925 8.85977C37.5663 8.54134 37.2402 8.2229 36.8629 7.94376C36.1084 7.38547 35.1888 7.03545 34.2456 6.86622C33.3023 6.69699 32.3748 6.75966 31.5533 7.06603C31.1169 7.23886 30.7317 7.3724 30.3347 7.59633C30.1814 7.71421 29.9377 7.82027 29.7844 7.93814C29.6311 8.05602 29.4267 8.21318 29.3127 8.38216C29.5445 8.36649 29.7371 8.29972 29.969 8.28406C30.1105 8.25658 30.3424 8.24091 30.535 8.17414C30.9595 8.09171 31.3329 8.04856 31.7456 8.05652C32.5317 8.02133 33.3571 8.03725 34.0802 8.13175C34.8427 8.27736 35.5933 8.51335 36.3832 8.80046C36.733 8.9381 37.1221 9.12685 37.5111 9.3156C37.6801 9.42962 37.9002 9.50435 38.0691 9.61837C38.2381 9.73239 38.4582 9.80712 38.6665 9.97224C38.5604 9.72853 38.4425 9.57522 38.2854 9.37081L37.8925 8.85977" fill="#FF5A79"/>
<path d="M10.6843 34.4954C10.5233 33.9687 10.3741 33.3516 10.3035 32.8367C10.0836 31.7047 10.0446 30.5963 10.1864 29.5116C10.3281 28.4269 10.5603 27.3539 10.9732 26.3046C11.1345 25.7741 11.3861 25.2553 11.6378 24.7366L12.0153 23.9585L12.3928 23.1804L11.6773 23.7304C11.4218 23.9269 11.2567 24.1352 11.0405 24.3827C10.6591 24.8385 10.2778 25.2944 9.97499 25.8524C9.38127 26.8781 8.99581 28.0689 8.88154 29.2951C8.76727 30.5214 8.87308 31.8223 9.31299 33.029C9.5133 33.6069 9.804 34.1965 10.1065 34.6957C10.2519 34.9905 10.4483 35.246 10.6055 35.4504C10.8019 35.706 10.9984 35.9615 11.2067 36.1266L10.9514 35.2658C10.8453 35.0221 10.7393 34.7784 10.6843 34.4954" fill="#FF5A79"/>
<path d="M7.54562 28.6147C7.60083 27.8405 7.79754 27.0387 8.03354 26.2881C8.17118 25.9383 8.32064 25.4982 8.45828 25.1484C8.53301 24.9283 8.64703 24.7593 8.72176 24.5393C8.79649 24.3192 8.91051 24.1502 8.98524 23.9301C8.83193 24.048 8.58822 24.1541 8.43491 24.2719C8.2816 24.3898 8.07718 24.547 7.96316 24.7159C7.64473 25.0421 7.41669 25.38 7.13755 25.7573C6.65784 26.614 6.35893 27.4943 6.2408 28.3983C6.16197 29.3533 6.26392 30.332 6.60958 31.2046C6.78242 31.6409 7.00635 32.0379 7.23029 32.435L7.66249 32.9971C7.81965 33.2015 7.93753 33.3548 8.1458 33.5199C8.07903 33.3273 8.06336 33.0954 7.9573 32.8517C7.90234 32.5687 7.83557 32.3761 7.81991 32.1442C7.73747 31.7198 7.65503 31.2953 7.61189 30.9219C7.48631 30.124 7.45112 29.3379 7.54562 28.6147" fill="#FF5A79"/>
<path d="M19.8992 42.7786L19.9267 42.9201C20.7716 43.4902 21.6519 43.7891 22.5322 44.088C23.4126 44.3869 24.3165 44.505 25.1812 44.5721C26.0458 44.6391 26.9616 44.6668 27.8892 44.6042C28.8167 44.5415 29.7168 44.3373 30.6406 43.9524L30.6131 43.8109C28.8052 43.5746 27.0366 43.3895 25.268 43.2043C23.4876 43.1096 21.6797 42.8733 19.8992 42.7786" fill="#FF5A79"/>
<path d="M18.9314 45.9612L18.9589 46.1027C19.9845 46.6964 20.9945 47.0583 22.0164 47.3297C23.0382 47.6011 24.0718 47.7822 25.1173 47.8728C26.1627 47.9635 27.1689 48.003 28.2772 47.964C29.3463 47.8738 30.4154 47.7837 31.4806 47.3712L31.4531 47.2297C29.3741 46.9581 27.2832 46.7768 25.2041 46.5051C23.1132 46.3238 20.983 46.0914 18.9314 45.9612" fill="#FF5A79"/>
<path d="M45.0604 29.2885C45.1785 28.3846 45.2966 27.4806 45.2732 26.6042C45.2499 25.7277 45.1479 24.749 44.8141 23.786L44.6844 23.7231C44.3184 25.4681 44.0822 27.276 43.7163 29.0209C43.4407 30.7777 43.1652 32.5345 42.9289 34.3424L43.0586 34.4053C43.668 33.6116 44.0573 32.743 44.3955 31.9138C44.6944 31.0335 44.8518 30.1807 45.0604 29.2885" fill="#FF5A79"/>
<path d="M46.8721 29.8461C46.6004 31.9252 46.2383 33.9924 45.9666 36.0715L46.0963 36.1344C46.7293 35.1599 47.1304 34.201 47.4923 33.191C47.8541 32.1809 48.0744 31.1984 48.2162 30.1137C48.3972 29.08 48.4879 28.0346 48.4881 26.9773C48.4884 25.9201 48.3982 24.851 48.088 23.7072L47.9583 23.6443C47.5569 25.6604 47.2341 27.7788 46.8721 29.8461" fill="#FF5A79"/>
</g>
<defs>
<clipPath id="clip0_616_460">
<rect width="41.2559" height="41.2559" fill="white" transform="translate(0 25.1465) rotate(-37.555)"/>
</clipPath>
</defs>
</svg>
