<svg width="29" height="29" viewBox="0 0 29 29" fill="none" xmlns="http://www.w3.org/2000/svg">
<path d="M14.5 0C10.6544 0 6.96623 1.52767 4.24695 4.24695C1.52767 6.96623 0 10.6544 0 14.5C0 18.3456 1.52767 22.0338 4.24695 24.753C6.96623 27.4723 10.6544 29 14.5 29C18.3456 29 22.0338 27.4723 24.753 24.753C27.4723 22.0338 29 18.3456 29 14.5C29 10.6544 27.4723 6.96623 24.753 4.24695C22.0338 1.52767 18.3456 0 14.5 0V0ZM8.62025 8.27588C10.0032 5.69487 15.9065 8.05838 10.3458 14.5C2.19675 11.6073 6.08638 6.70988 8.62025 8.27588ZM20.5084 18.1504C20.6805 18.1099 20.8606 18.1206 21.0267 18.1811C21.1927 18.2417 21.3375 18.3495 21.443 18.4913C21.5486 18.6331 21.6104 18.8026 21.6208 18.9791C21.6312 19.1555 21.5898 19.3312 21.5017 19.4844C20.786 20.7248 19.7562 21.7547 18.5159 22.4707C17.2756 23.1866 15.8686 23.5632 14.4366 23.5625C13.0045 23.5632 11.5975 23.1866 10.3572 22.4707C9.11697 21.7547 8.08715 20.7248 7.37144 19.4844C7.2833 19.3312 7.2419 19.1555 7.25232 18.9791C7.26275 18.8026 7.32454 18.6331 7.4301 18.4913C7.53567 18.3495 7.68038 18.2417 7.84644 18.1811C8.01249 18.1206 8.19263 18.1099 8.36469 18.1504H8.37375L8.40456 18.1594L8.526 18.1866L8.98275 18.2863C9.37244 18.3697 9.91619 18.4821 10.5361 18.5926C11.7921 18.8174 13.2947 19.0312 14.4366 19.0312C15.5784 19.0312 17.0828 18.8174 18.3371 18.5926C19.0099 18.4716 19.6801 18.3362 20.3471 18.1866L20.4686 18.1594L20.4994 18.1522L20.5084 18.1486V18.1504ZM20.3816 8.27588C22.9136 6.70988 26.8032 11.6073 18.6542 14.5C13.0953 8.05838 18.9986 5.69487 20.3798 8.27588H20.3816Z" fill="#FF5A79"/>
</svg>
